<svg>
  <symbol id="logo" xmlns="http://www.w3.org/2000/svg" viewBox="0 0 512 512">
		<path d="M408.849,432.3c1.398-7.966,2.11-16.095,2.11-24.273v-16.145c0-15.108-12.286-27.407-27.382-27.407
			c-15.108,0-27.395,12.299-27.395,27.407v16.145c0,5.819-1.586,11.45-4.52,16.357h-47.423c-7.904,0-14.322-6.43-14.322-14.322
			v-66.115c5.656-56.138,36.098-108.93,83.633-144.941l0.075-0.062c0.187-0.125,0.375-0.262,0.562-0.412
			c0.225-0.162,0.437-0.325,0.637-0.512c18.442-14.272,30.279-35.698,32.539-58.91c2.21-22.6-4.52-44.701-18.942-62.232
			C374,59.347,353.622,48.472,331.022,46.274c-2.759-0.262-12.249-0.4-12.249-0.4v-4.52c0-22.8-18.542-41.355-41.342-41.355h-62.644
			c-22.738,0-41.242,18.442-41.342,41.155c0,0.075-0.012,0.137-0.012,0.2v4.52c0,0-9.477,0.137-12.249,0.4
			c-22.6,2.198-42.978,13.073-57.399,30.604c-14.422,17.531-21.152,39.631-18.954,62.219c2.26,23.212,14.109,44.651,32.539,58.923
			c0.212,0.175,0.424,0.35,0.662,0.524c0.187,0.137,0.375,0.275,0.549,0.412l0.087,0.05c47.523,36.023,77.977,88.815,83.633,144.941
			v66.115c0,4.857,0.35,9.627,1.011,14.309h-72.77c-24.161,0-43.814,19.653-43.814,43.814S106.381,512,130.542,512h253.222
			c24.161,0,43.814-19.653,43.814-43.814C427.578,453.352,420.161,440.229,408.849,432.3z M378.657,408.027v-16.145
			c0-2.722,2.21-4.932,4.92-4.932s4.907,2.21,4.907,4.932v16.145c0,5.556-0.4,11.075-1.161,16.519
			c-1.174-0.1-11.188-0.162-11.188-0.162C377.783,419.14,378.657,413.633,378.657,408.027z M317.686,70.847h5.044
			c1.923,0,3.908,0.1,5.869,0.287c15.957,1.548,30.354,9.227,40.543,21.601c10.176,12.386,14.934,27.994,13.373,43.952
			c-1.611,16.557-10.139,31.828-23.374,41.904c-0.1,0.075-0.2,0.15-0.3,0.225l-0.15,0.112c-0.037,0.025-0.075,0.062-0.125,0.087
			c-29.068,22.001-52.417,49.695-68.65,80.599V116.297C304.276,105.409,314.465,89.314,317.686,70.847z M202.301,259.615
			c-16.232-30.891-39.594-58.598-68.662-80.599c-0.05-0.037-0.1-0.062-0.15-0.1l-0.125-0.1c-0.1-0.075-0.2-0.15-0.3-0.225
			c-13.248-10.076-21.764-25.347-23.374-41.916c-1.561-15.945,3.196-31.553,13.373-43.939
			c10.189-12.374,24.585-20.053,40.543-21.601c1.973-0.187,3.958-0.3,5.869-0.287h5.057c3.221,18.467,13.41,34.562,27.769,45.45
			V259.615z M130.542,487.027c-10.389,0-18.842-8.453-18.842-18.842c0-10.389,8.453-18.842,18.842-18.842h79.638
			c6.106,14.584,15.52,27.457,27.295,37.684H130.542z M227.273,410.162h37.609V454.8c0,8.703,1.973,16.944,5.469,24.348
			C244.891,466.6,227.311,440.404,227.273,410.162z M264.944,184.647v31.403h-37.671v-31.403H264.944z M227.273,159.675v-31.141
			c6.006,1.623,12.324,2.497,18.829,2.497c6.518,0,12.836-0.874,18.842-2.497v31.141H227.273z M264.944,241.023v31.416h-37.671
			v-31.416H264.944z M264.944,297.411v31.403h-37.671v-31.403H264.944z M264.944,353.786v31.403h-37.671v-31.403H264.944z
			 M246.103,106.058c-26.296,0-47.698-21.401-47.698-47.698V41.355c0-9.028,7.354-16.382,16.382-16.382h62.644
			c9.028,0,16.37,7.354,16.37,16.382v17.006C293.8,84.657,272.411,106.058,246.103,106.058z M383.764,487.027h-61.795
			c-17.718-0.062-32.115-14.497-32.115-32.227v-8.141c0.125,0.05,0.262,0.087,0.387,0.112c4.358,1.661,9.065,2.585,13.997,2.585
			h79.525c10.389,0,18.842,8.441,18.842,18.829C402.606,478.574,394.152,487.027,383.764,487.027z"/>
    <path d="M219.644,37.371c-6.905,0-12.486,5.594-12.486,12.486s5.581,12.486,12.486,12.486c6.892,0,12.486-5.594,12.486-12.486
    S226.537,37.371,219.644,37.371z"/>
    <path d="M272.574,37.371c-6.892,0-12.486,5.594-12.486,12.486s5.594,12.486,12.486,12.486s12.486-5.594,12.486-12.486
    S279.466,37.371,272.574,37.371z"/>
  </symbol>

  <symbol id="facebook" xmlns="http://www.w3.org/2000/svg" viewBox="0 0 155.139 155.139">
	  <path id="f_1_" d="M89.584,155.139V84.378h23.742l3.562-27.585H89.584V39.184
		c0-7.984,2.208-13.425,13.67-13.425l14.595-0.006V1.08C115.325,0.752,106.661,0,96.577,0C75.52,0,61.104,12.853,61.104,36.452
		v20.341H37.29v27.585h23.814v70.761H89.584z"/>
  </symbol>

  <symbol id="instagram" viewBox="0 0 512 512" xmlns="http://www.w3.org/2000/svg">
    <path d="m256 120.5c-74.714844 0-135.5 60.785156-135.5 135.5s60.785156 135.5 135.5 135.5 135.5-60.785156 135.5-135.5-60.785156-135.5-135.5-135.5zm0 241c-58.171875 0-105.5-47.328125-105.5-105.5s47.328125-105.5 105.5-105.5c58.175781 0 105.5 47.328125 105.5 105.5s-47.324219 105.5-105.5 105.5zm0 0"/><path d="m460.410156 51.589844c-33.265625-33.269532-77.332031-51.589844-124.074218-51.589844h-160.671876c-46.742187 0-90.808593 18.320312-124.074218 51.589844-33.269532 33.265625-51.589844 77.332031-51.589844 124.074218v160.667969c0 46.746094 18.320312 90.8125 51.589844 124.078125 33.265625 33.269532 77.332031 51.589844 124.074218 51.589844h160.671876c46.742187 0 90.808593-18.320312 124.074218-51.589844 33.269532-33.265625 51.589844-77.332031 51.589844-124.078125v-160.667969c0-46.742187-18.320312-90.808593-51.589844-124.074218zm21.589844 284.742187c0 80.320313-65.347656 145.667969-145.664062 145.667969h-160.671876c-80.316406 0-145.664062-65.347656-145.664062-145.667969v-160.667969c0-80.316406 65.347656-145.664062 145.664062-145.664062h160.671876c80.316406 0 145.664062 65.347656 145.664062 145.664062zm0 0"/><path d="m395.511719 101.488281c-3.953125 0-7.820313 1.609375-10.613281 4.402344-2.789063 2.789063-4.386719 6.660156-4.386719 10.597656 0 3.949219 1.597656 7.820313 4.386719 10.609375 2.792968 2.792969 6.660156 4.390625 10.613281 4.390625 3.9375 0 7.808593-1.597656 10.597656-4.390625 2.789063-2.789062 4.402344-6.660156 4.402344-10.609375 0-3.9375-1.613281-7.808593-4.402344-10.597656s-6.660156-4.402344-10.597656-4.402344zm0 0"/>
  </symbol>

  <symbol>
    <svg id="phone" xmlns="http://www.w3.org/2000/svg" viewBox="0 0 480.56 480.56">
    <path d="M365.354,317.9c-15.7-15.5-35.3-15.5-50.9,0c-11.9,11.8-23.8,23.6-35.5,35.6c-3.2,3.3-5.9,4-9.8,1.8
      c-7.7-4.2-15.9-7.6-23.3-12.2c-34.5-21.7-63.4-49.6-89-81c-12.7-15.6-24-32.3-31.9-51.1c-1.6-3.8-1.3-6.3,1.8-9.4
      c11.9-11.5,23.5-23.3,35.2-35.1c16.3-16.4,16.3-35.6-0.1-52.1c-9.3-9.4-18.6-18.6-27.9-28c-9.6-9.6-19.1-19.3-28.8-28.8
      c-15.7-15.3-35.3-15.3-50.9,0.1c-12,11.8-23.5,23.9-35.7,35.5c-11.3,10.7-17,23.8-18.2,39.1c-1.9,24.9,4.2,48.4,12.8,71.3
      c17.6,47.4,44.4,89.5,76.9,128.1c43.9,52.2,96.3,93.5,157.6,123.3c27.6,13.4,56.2,23.7,87.3,25.4c21.4,1.2,40-4.2,54.9-20.9
      c10.2-11.4,21.7-21.8,32.5-32.7c16-16.2,16.1-35.8,0.2-51.8C403.554,355.9,384.454,336.9,365.354,317.9z"/>
    <path d="M346.254,238.2l36.9-6.3c-5.8-33.9-21.8-64.6-46.1-89c-25.7-25.7-58.2-41.9-94-46.9l-5.2,37.1
      c27.7,3.9,52.9,16.4,72.8,36.3C329.454,188.2,341.754,212,346.254,238.2z"/>
    <path d="M403.954,77.8c-42.6-42.6-96.5-69.5-156-77.8l-5.2,37.1c51.4,7.2,98,30.5,134.8,67.2c34.9,34.9,57.8,79,66.1,127.5
      l36.9-6.3C470.854,169.3,444.354,118.3,403.954,77.8z"/>
  </symbol>

  <symbol id="messenger" xmlns="http://www.w3.org/2000/svg" viewBox="0 0 512 512">
    <path d="M256.55 8C116.52 8 8 110.34 8 248.57c0 72.3 29.71 134.78 78.07 177.94 8.35 7.51 6.63 11.86 8.05 58.23A19.92 19.92 0 0 0 122 502.31c52.91-23.3 53.59-25.14 62.56-22.7C337.85 521.8 504 423.7 504 248.57 504 110.34 396.59 8 256.55 8zm149.24 185.13l-73 115.57a37.37 37.37 0 0 1-53.91 9.93l-58.08-43.47a15 15 0 0 0-18 0l-78.37 59.44c-10.46 7.93-24.16-4.6-17.11-15.67l73-115.57a37.36 37.36 0 0 1 53.91-9.93l58.06 43.46a15 15 0 0 0 18 0l78.41-59.38c10.44-7.98 24.14 4.54 17.09 15.62z"/>
  </symbol>
</svg>
